#!OML:ASF E:\acrobat2\Project_11_07_03\Capture day 1\Session 1\Acrobat.ASF
:FULLY-SPECIFIED
:DEGREES
25
root 8.76796 17.9119 -27.8261 38.4636 -87.1452 -33.5065
lowerback -7.99443 1.69909 1.68936
upperback -1.29964 2.12213 -1.07908
thorax 3.23755 1.06476 -1.83838
lowerneck -2.42121 1.73274 0.0840932
upperneck 3.71438 2.14057 3.71109
head 1.52183 1.13175 1.18695
rclavicle 2.04997e-015 3.97569e-016
rhumerus -11.2863 -2.2273 -11.0063
rradius 21.7762
rwrist 13.3067
rhand 1.4066 -44.8233
rfingers 7.12502
rthumb 26.937 -72.9234
lclavicle 2.04997e-015 3.97569e-016
lhumerus -5.564 -18.1474 8.98277
lradius 23.2675
lwrist 10.6829
lhand -4.94428 -6.14527
lfingers 7.12502
lthumb 20.8469 22.7547
rfemur 6.76699 15.6417 13.2647
rtibia -2.30384
rfoot -25.3748 -28.1426
rtoes 4.09919
lfemur 5.31035 -5.21729 -3.5179
ltibia -0.895767
lfoot -24.2218 5.56393
ltoes 36.4485
26
root 8.76277 17.9171 -27.8216 37.3097 -87.1874 -32.3215
lowerback -7.94119 1.73575 1.70178
upperback -1.32815 2.1717 -1.12401
thorax 3.18287 1.08889 -1.88836
lowerneck -2.62357 1.59804 -0.0128455
upperneck 3.93339 1.95029 3.80932
head 1.63033 1.04158 1.23693
rclavicle 9.14409e-015 -1.15295e-014
rhumerus -10.8398 -2.79365 -9.38012
rradius 21.8159
rwrist 13.1534
rhand 1.3878 -44.8503
rfingers 7.12502
rthumb 26.919 -72.9532
lclavicle 9.14409e-015 -1.15295e-014
lhumerus -5.14214 -18.6844 7.1781
lradius 23.6269
lwrist 12.1033
lhand -5.59618 -5.61106
lfingers 7.12502
lthumb 20.2205 23.3565
rfemur 6.76055 15.5967 13.1458
rtibia -2.33037
rfoot -25.4708 -28.0255
rtoes 4.52507
lfemur 5.33132 -5.2702 -3.6474
ltibia -0.959736
lfoot -24.2665 5.56564
ltoes 36.9086
27
root 8.7577 17.9224 -27.8182 35.2279 -87.2753 -30.1914
lowerback -7.87172 1.77235 1.68165
upperback -1.36918 2.2254 -1.22
thorax 3.10731 1.11448 -1.97318
lowerneck -2.81621 1.40002 -0.00555412
upperneck 4.14474 1.67295 3.85598
head 1.73833 0.908321 1.25016
rclavicle 9.405e-015 -7.15625e-015
rhumerus -10.4383 -3.60741 -7.91236
rradius 21.8323
rwrist 13.2898
rhand 1.35924 -44.7694
rfingers 7.12502
rthumb 26.8916 -72.8765
lclavicle 9.405e-015 -7.15625e-015
lhumerus -4.67924 -19.1075 5.38291
lradius 23.8395
lwrist 13.3059
lhand -6.32412 -5.4274
lfingers 7.12502
lthumb 19.5208 23.6126
rfemur 6.72453 15.5245 12.9333
rtibia -2.3572
rfoot -25.4933 -27.8946
rtoes 4.95646
lfemur 5.32183 -5.35404 -3.85806
ltibia -0.992628
lfoot -24.4131 5.51782
ltoes 37.2795
28
root 8.75274 17.9299 -27.8163 33.5724 -87.3598 -28.4263
lowerback -7.83471 1.77838 1.57019
upperback -1.4483 2.24213 -1.24732
thorax 3.00248 1.11954 -1.93942
lowerneck -2.96622 1.18805 0.0770308
upperneck 4.34513 1.38184 3.74869
head 1.83671 0.765889 1.19962
rclavicle 2.14625e-014 3.97569e-015
rhumerus -9.96847 -4.46598 -6.51432
rradius 21.8543
rwrist 13.5998
rhand 1.26967 -44.7512
rfingers 7.12502
rthumb 26.8059 -72.8715
lclavicle 2.14625e-014 3.97569e-015
lhumerus -4.25402 -18.5216 3.8752
lradius 23.7456
lwrist 13.3555
lhand -6.53787 -5.5323
lfingers 7.12502
lthumb 19.3152 23.5285
rfemur 6.6107 15.6012 12.7731
rtibia -2.35727
rfoot -25.6136 -27.8672
rtoes 5.66844
lfemur 5.21378 -5.32628 -3.99919
ltibia -0.969451
lfoot -24.5265 5.37637
ltoes 37.7154
29
root 8.74828 17.938 -27.8128 34.7301 -87.3224 -29.4551
lowerback -7.80175 1.72604 1.59305
upperback -1.56375 2.16581 -1.15744
thorax 2.85848 1.07846 -1.87024
lowerneck -3.07832 1.06829 0.222355
upperneck 4.59294 1.22468 3.37498
head 1.94152 0.685801 1.05617
rclavicle 2.18849e-014 -7.95139e-015
rhumerus -9.39511 -5.19012 -5.24714
rradius 21.9643
rwrist 13.9524
rhand 1.07297 -44.7609
rfingers 7.12502
rthumb 26.6177 -72.9099
lclavicle 2.18849e-014 -7.95139e-015
lhumerus -3.95395 -18.1364 2.48748
lradius 23.5702
lwrist 13.3284
lhand -6.48628 -5.37475
lfingers 7.12502
lthumb 19.3648 23.681
rfemur 6.48878 15.7515 12.8458
rtibia -2.36041
rfoot -25.8027 -27.9507
rtoes 6.18774
lfemur 5.07104 -5.25548 -3.93081
ltibia -0.954366
lfoot -24.4903 5.4198
ltoes 37.5215
30
root 8.74341 17.9437 -27.8073 33.4119 -87.3548 -28.0431
lowerback -7.75336 1.65847 1.51687
upperback -1.66164 2.07877 -1.09855
thorax 2.7215 1.03168 -1.77852
lowerneck -3.23173 1.05975 0.43143
upperneck 4.83751 1.21966 2.89714
head 2.05082 0.680008 0.872813
rclavicle 2.96935e-015 -2.38542e-015
rhumerus -8.76356 -5.0056 -3.93405
rradius 22.1348
rwrist 13.334
rhand 0.846655 -44.8326
rfingers 7.12502
rthumb 26.4011 -73.0143
lclavicle 2.96935e-015 -2.38542e-015
lhumerus -3.70234 -18.1301 1.1385
lradius 23.481
lwrist 13.666
lhand -6.51045 -4.93745
lfingers 7.12502
lthumb 19.3416 24.1207
rfemur 6.41945 15.81 12.7223
rtibia -2.40029
rfoot -25.9203 -28.0119
rtoes 6.14495
lfemur 4.96682 -5.19852 -4.0514
ltibia -0.927053
lfoot -24.4299 5.43971
ltoes 37.3498
31
root 8.73971 17.9482 -27.803 31.0338 -87.4239 -25.5985
lowerback -7.70992 1.6281 1.45518
upperback -1.70899 2.04344 -1.12496
thorax 2.64572 1.01234 -1.77666
lowerneck -3.27945 0.87544 -0.704126
upperneck 4.89148 0.963425 4.11225
head 2.07896 0.561116 1.45207
rclavicle -6.69656e-015 -5.1684e-015
rhumerus -8.30118 -4.92475 -2.70711
rradius 22.3219
rwrist 12.6791
rhand 0.76641 -44.9275
rfingers 7.12502
rthumb 26.3243 -73.1207
lclavicle -6.69656e-015 -5.1684e-015
lhumerus -3.39295 -18.2885 -0.266143
lradius 23.5206
lwrist 14.3562
lhand -6.59745 -4.52521
lfingers 7.12502
lthumb 19.2579 24.5413
rfemur 6.38914 15.9348 12.5553
rtibia -2.45286
rfoot -26.0596 -28.118
rtoes 6.26257
lfemur 4.93441 -5.38189 -4.27745
ltibia -0.972745
lfoot -24.6308 5.44474
ltoes 37.6008
